<?xml version="1.0" standalone="no"?>
<!DOCTYPE svg PUBLIC "-//W3C//DTD SVG 20010904//EN"
 "http://www.w3.org/TR/2001/REC-SVG-20010904/DTD/svg10.dtd">
<svg version="1.0" xmlns="http://www.w3.org/2000/svg"
 width="260.000000pt" height="260.000000pt" viewBox="0 0 260.000000 260.000000"
 preserveAspectRatio="xMidYMid meet">
<metadata>
Created by potrace 1.11, written by Peter Selinger 2001-2013
</metadata>
<g transform="translate(0.000000,260.000000) scale(0.100000,-0.100000)"
fill="#000000" stroke="none">
<path d="M2228 2561 c-1 -5 -79 -51 -173 -103 -93 -52 -230 -128 -302 -169
l-133 -74 0 -62 c0 -35 3 -63 7 -63 11 0 463 251 469 261 3 5 14 9 25 9 19 0
19 -11 19 -468 0 -258 -3 -471 -6 -475 -3 -3 -25 22 -47 56 -23 34 -71 92
-108 128 -117 117 -225 186 -375 239 -129 45 -211 60 -338 60 -478 0 -889
-333 -966 -783 -16 -92 -8 -313 15 -397 93 -343 402 -621 760 -686 102 -18
292 -18 387 0 336 65 627 309 734 614 55 158 54 145 54 1068 0 759 -3 894 -22
845z m-981 -1170 c29 -14 49 -33 68 -66 24 -40 27 -53 22 -98 -13 -109 -130
-220 -409 -386 -94 -56 -101 -67 -73 -120 38 -75 125 -108 259 -98 199 15 405
111 681 317 139 104 165 120 189 120 32 0 14 -32 -61 -111 -187 -196 -455
-366 -678 -430 -116 -34 -304 -34 -389 0 -123 49 -180 144 -179 296 2 170 67
327 187 450 125 128 271 176 383 126z"/>
<path d="M1086 1275 c-85 -30 -180 -149 -221 -278 -13 -39 -22 -74 -20 -76 2
-2 39 18 82 44 202 123 280 215 243 285 -17 32 -41 39 -84 25z"/>
</g>
</svg>
